<svg xmlns="http://www.w3.org/2000/svg" width="1000" height="538" viewBox="0 0 1000 538"><rect width="1000" height="538" fill="#fff"/><style>text{font-family:Arial;fill:#172d3a}path,line,circle{stroke:#31566d;stroke-width:2}.accent{stroke:#a94728}</style><text x="35" y="35" font-size="22">Finite PFP mass in a freely deforming 3D gel cavity</text><circle cx="280" cy="198" r="134" fill="#e3f0e9"/><circle cx="280" cy="198" r="91" fill="#f4ddb5"/><circle cx="280" cy="198" r="63" fill="#fff"/>
<text x="215" y="177">vapor: T, ρ_v, p_v</text><text x="211" y="207">m_v = f_v m, u_v, g_v</text><text x="226" y="253">PFP liquid shell</text><text x="213" y="275">ρ_l, p_l, u_l, g_l</text>
<line x1="280" y1="198" x2="343" y2="198"/><text x="295" y="225">R_g</text><line x1="280" y1="295" x2="371" y2="295"/><text x="297" y="317">R = λa, σ_LL</text><text x="361" y="150">σ_LV</text>
<text x="480" y="110">Reference cavity a = 300 nm; outer gel B a = 6 μm</text><text x="480" y="145">p_l − p₀ = p_el(R) + 2σ_LL/R</text><text x="480" y="180">Free outer traction; rigid motion removed</text><text x="480" y="215">Gel: G, K, F = I + ∇d, J = det(F)</text><text x="480" y="250">No imposed radius, shape or cavity displacement</text><text x="480" y="285">Closed intact gel: no specified exterior liquid pathway</text><text x="35" y="360" font-size="15">m = 4πa³ρ_D/3: cold PFP inventory; f_v: vapor mass fraction; V = V_l + V_v = 4πR³/3; A = 4πR².</text><text x="35" y="383" font-size="15">ρ_D, T₀: cold liquid density and reference temperature; Q_dep: retained energy; U = m[(1−f_v)u_l + f_v u_v].</text><text x="35" y="406" font-size="15">g_l, g_v: specific Gibbs energy; p_l, p_v: absolute phase pressures; σ_LL, σ_LV: constant interface reference coefficients.</text><text x="35" y="429" font-size="15">W(F), W_s: gel energy density / integrated elastic work; G, K: shear / bulk modulus; λ_max: maximum principal stretch.</text><text x="35" y="452" font-size="15">C_R: restoring stiffness, positive for radial stability; V_D, A_D, U_D: cold reference values; α: assumed gel thermal diffusivity.</text><text x="35" y="475" font-size="15">Π: elastic + interface − internal pressure imbalance; λ_f = 2.1: cited uniaxial proxy; S: total PFP entropy; t_th = a²/α.</text></svg>