<svg xmlns="http://www.w3.org/2000/svg" width="1080" height="606" viewBox="0 0 1080 606" role="img"><title>Modal stiffness / 模态刚度</title><desc>κ_r: gas polytropic exponent / curvature; q: generalized mode displacement; φ&#x27;&#x27;: assumed spatial mode shape; κ_θ: gas polytropic exponent / curvature; φ&#x27;: assumed spatial mode shape; s: in-plane radial coordinate</desc><rect width="1080" height="606" fill="#101b26"/><g font-family="Arial, Microsoft YaHei, sans-serif"><path d="M100,203 L160,203 Q350,330 550,203 L635,203" fill="none" stroke="#82d9ee" stroke-width="4"/><path d="M230,107 L230,220" stroke="#ffd39a" stroke-width="2.5" fill="none"/><polygon points="230,220 235.0,209.0 225.0,209.0" fill="#ffd39a"/><path d="M350,107 L350,220" stroke="#ffd39a" stroke-width="2.5" fill="none"/><polygon points="350,220 355.0,209.0 345.0,209.0" fill="#ffd39a"/><path d="M470,107 L470,220" stroke="#ffd39a" stroke-width="2.5" fill="none"/><polygon points="470,220 475.0,209.0 465.0,209.0" fill="#ffd39a"/><text x="170" y="78" fill="#e8f1f6" font-size="20" text-anchor="start">p(s,t) → Qn = ∫p φn dA</text><text x="365" y="280" fill="#e8f1f6" font-size="18" text-anchor="start">q(t), w(s,t)=φ(s)q(t)</text><path d="M160,312 L550,312" stroke="#82d9ee" stroke-width="2.5" fill="none"/><polygon points="550,312 539.0,307.0 539.0,317.0" fill="#82d9ee"/><text x="303" y="338" fill="#e8f1f6" font-size="17" text-anchor="start">a · span / 跨度</text><text x="635" y="138" fill="#e8f1f6" font-size="19" text-anchor="start">Mq, Cq, Kq</text><text x="635" y="171" fill="#e8f1f6" font-size="19" text-anchor="start">ωn, ζ</text><text x="110" y="275" fill="#e8f1f6" font-size="17" text-anchor="start">h, D, mA</text><path d="M35,370 L1045,370" stroke="#405466"/><text x="35" y="395" fill="#e8f1f6" font-size="18" text-anchor="start">Variable locations and roles / 变量位置与作用</text><text x="35" y="425" fill="#e8f1f6" font-size="15" text-anchor="start">κ_r  ·  gas polytropic exponent / curvature</text><text x="35" y="446" fill="#b1c2cf" font-size="14" text-anchor="start">closure / 气体多方指数／曲率</text><text x="35" y="477" fill="#e8f1f6" font-size="15" text-anchor="start">q  ·  generalized mode displacement</text><text x="35" y="498" fill="#b1c2cf" font-size="14" text-anchor="start">film centre / 广义模态位移</text><text x="35" y="529" fill="#e8f1f6" font-size="15" text-anchor="start">φ&#x27;&#x27;  ·  assumed spatial mode shape</text><text x="35" y="550" fill="#b1c2cf" font-size="14" text-anchor="start">film / 假设空间模态形状</text><text x="550" y="425" fill="#e8f1f6" font-size="15" text-anchor="start">κ_θ  ·  gas polytropic exponent / curvature</text><text x="550" y="446" fill="#b1c2cf" font-size="14" text-anchor="start">closure / 气体多方指数／曲率</text><text x="550" y="477" fill="#e8f1f6" font-size="15" text-anchor="start">φ&#x27;  ·  assumed spatial mode shape</text><text x="550" y="498" fill="#b1c2cf" font-size="14" text-anchor="start">film / 假设空间模态形状</text><text x="550" y="529" fill="#e8f1f6" font-size="15" text-anchor="start">s  ·  in-plane radial coordinate</text><text x="550" y="550" fill="#b1c2cf" font-size="14" text-anchor="start">film / 平面内径向坐标</text></g></svg>