<svg xmlns="http://www.w3.org/2000/svg" width="1080" height="606" viewBox="0 0 1080 606" role="img"><title>Bubble-driven films, membranes and detachment · original governing laws</title><desc>D: bending rigidity / dose / residual derivative; ν: Poisson ratio; Π_b: pressure impulse / shell traction / availability; Δ: change / pressure difference; p: pressure at the indicated location; a: droplet radius / film span / acceleration</desc><rect width="1080" height="606" fill="#101b26"/><g font-family="Arial, Microsoft YaHei, sans-serif"><path d="M125,150 L705,150 L705,175 L125,175 Z" fill="#435766"/><path d="M125,230 L705,230 L705,255 L125,255 Z" fill="#244453"/><path d="M220,226 L220,180" stroke="#ffd39a" stroke-width="2.5" fill="none"/><polygon points="220,180 215.0,191.0 225.0,191.0" fill="#ffd39a"/><path d="M320,226 L320,180" stroke="#ffd39a" stroke-width="2.5" fill="none"/><polygon points="320,180 315.0,191.0 325.0,191.0" fill="#ffd39a"/><path d="M420,226 L420,180" stroke="#ffd39a" stroke-width="2.5" fill="none"/><polygon points="420,180 415.0,191.0 425.0,191.0" fill="#ffd39a"/><path d="M520,226 L520,180" stroke="#ffd39a" stroke-width="2.5" fill="none"/><polygon points="520,180 515.0,191.0 525.0,191.0" fill="#ffd39a"/><path d="M620,226 L620,180" stroke="#ffd39a" stroke-width="2.5" fill="none"/><polygon points="620,180 615.0,191.0 625.0,191.0" fill="#ffd39a"/><text x="130" y="125" fill="#e8f1f6" font-size="20" text-anchor="start">Film / carrier layers · 膜／载体层</text><text x="720" y="213" fill="#e8f1f6" font-size="18" text-anchor="start">δn</text><path d="M706,175 L706,230" stroke="#82d9ee" stroke-width="2.5" fill="none"/><polygon points="706,230 711.0,219.0 701.0,219.0" fill="#82d9ee"/><text x="225" y="209" fill="#e8f1f6" font-size="20" text-anchor="start">tn; ts; Dc; Gc; ℓcz</text><text x="155" y="302" fill="#e8f1f6" font-size="17" text-anchor="start">Strength starts damage; fracture work completes separation</text><text x="155" y="330" fill="#e8f1f6" font-size="17" text-anchor="start">强度控制起始损伤；断裂功控制完全分离</text><path d="M35,370 L1045,370" stroke="#405466"/><text x="35" y="395" fill="#e8f1f6" font-size="18" text-anchor="start">Variable locations and roles / 变量位置与作用</text><text x="35" y="425" fill="#e8f1f6" font-size="15" text-anchor="start">D  ·  bending rigidity / dose / residual derivative</text><text x="35" y="446" fill="#b1c2cf" font-size="14" text-anchor="start">closure / 弯曲刚度／剂量／导数剩余项</text><text x="35" y="477" fill="#e8f1f6" font-size="15" text-anchor="start">ν  ·  Poisson ratio</text><text x="35" y="498" fill="#b1c2cf" font-size="14" text-anchor="start">structure / 泊松比</text><text x="35" y="529" fill="#e8f1f6" font-size="15" text-anchor="start">Π_b  ·  pressure impulse / shell traction / availability</text><text x="35" y="550" fill="#b1c2cf" font-size="14" text-anchor="start">load / 压力冲量／壳层牵引／可用性比</text><text x="550" y="425" fill="#e8f1f6" font-size="15" text-anchor="start">Δ  ·  change / pressure difference</text><text x="550" y="446" fill="#b1c2cf" font-size="14" text-anchor="start">difference / 变化量／压差</text><text x="550" y="477" fill="#e8f1f6" font-size="15" text-anchor="start">p  ·  pressure at the indicated location</text><text x="550" y="498" fill="#b1c2cf" font-size="14" text-anchor="start">pressure / 指定位置压力</text><text x="550" y="529" fill="#e8f1f6" font-size="15" text-anchor="start">a  ·  droplet radius / film span / acceleration</text><text x="550" y="550" fill="#b1c2cf" font-size="14" text-anchor="start">geometry / 液滴半径／膜跨度／加速度</text></g></svg>